<svg width="115" height="24" viewBox="0 0 115 24" fill="none" xmlns="http://www.w3.org/2000/svg">
<path d="M36.6017 22.3343V0.649902H42.1679C45.2912 0.649902 47.7011 1.52842 49.3975 3.28546C51.0924 5.04398 51.9398 7.69138 51.9398 11.2277C51.9398 13.4884 51.5636 15.4506 50.8111 17.1143C50.0586 18.7795 48.9535 20.0655 47.4956 20.9721C46.0363 21.8803 44.2501 22.3343 42.137 22.3343H36.6017ZM42.0442 3.76101H40.5908V18.9121H42.0442C43.1781 18.9121 44.1213 18.6966 44.8738 18.2655C45.6262 17.8358 46.227 17.2603 46.6762 16.5388C47.1238 15.8188 47.4434 15.0047 47.6348 14.0966C47.8248 13.1899 47.9197 12.2647 47.9197 11.321C47.9197 10.0143 47.7394 8.78546 47.3786 7.63435C47.0178 6.48324 46.4096 5.5499 45.5541 4.83435C44.6985 4.11879 43.5286 3.76101 42.0442 3.76101Z" fill="#037B2A"/>
<path d="M55.2636 22.3343V0.649902H66.5198V4.04101H59.1291V9.11212H65.0046V12.4099H59.1291V18.8188H67.1383V22.3343H55.2636Z" fill="#037B2A"/>
<path d="M68.0046 22.3341L77.1271 0.276367H77.4363L86.5897 22.3341H82.3841L81.1781 19.1919H73.4781L72.3339 22.3341H68.0046ZM76.756 10.263L74.5913 16.1741H80.0339L77.7765 10.263L77.2508 8.52081L76.756 10.263Z" fill="#037B2A"/>
<path d="M88.2755 22.3343V0.649902H92.2028V18.9121H98.635V22.3343H88.2755Z" fill="#037B2A"/>
<path d="M106.489 22.6764C104.974 22.6764 103.649 22.4223 102.515 21.9141C101.382 21.406 100.552 20.8719 100.026 20.3119L101.603 17.0453C101.82 17.3253 102.163 17.6415 102.633 17.9941C103.101 18.3467 103.647 18.6549 104.271 18.9186C104.894 19.1838 105.541 19.3164 106.211 19.3164C106.984 19.3164 107.657 19.0986 108.23 18.663C108.801 18.2275 109.087 17.5845 109.087 16.7341C109.087 15.8941 108.791 15.2275 108.199 14.7341C107.605 14.2423 106.798 13.6853 105.778 13.063C104.943 12.5549 104.123 12.0127 103.319 11.4364C102.515 10.8615 101.848 10.1564 101.318 9.32081C100.787 8.48674 100.521 7.43192 100.521 6.15636C100.521 4.44525 101.065 3.03711 102.153 1.93192C103.24 0.828219 104.819 0.276367 106.891 0.276367C107.943 0.276367 108.837 0.400812 109.575 0.6497C110.311 0.898589 110.909 1.18377 111.368 1.50526C111.826 1.82674 112.169 2.09118 112.396 2.29859L110.664 5.47192C110.52 5.26451 110.277 5.01044 109.937 4.7097C109.597 4.40896 109.18 4.14451 108.685 3.91637C108.19 3.68822 107.644 3.57414 107.046 3.57414C106.211 3.57414 105.585 3.81488 105.168 4.29637C104.75 4.77933 104.541 5.34748 104.541 6.00081C104.541 6.84081 104.848 7.52525 105.462 8.05414C106.075 8.58303 106.819 9.11192 107.695 9.64081C108.664 10.2215 109.561 10.8045 110.386 11.3897C111.21 11.9764 111.875 12.6764 112.38 13.4897C112.885 14.3045 113.138 15.3445 113.138 16.6097C113.138 18.5075 112.545 19.9927 111.36 21.0653C110.174 22.1393 108.551 22.6764 106.489 22.6764Z" fill="#037B2A"/>
<path d="M26.0162 18.1948C25.5965 18.1948 25.2754 18.3686 25.0392 18.4948C24.9705 18.5324 24.8678 18.587 24.8404 18.5913C24.8135 18.5913 24.6679 18.5402 24.36 17.519C24.3432 17.4608 24.3254 17.4029 24.3066 17.3453C24.0475 16.5608 23.4146 15.7744 22.7652 15.0404L23.296 7.76327C23.296 6.28905 22.8704 4.8366 22.0664 3.56393L21.7713 3.09749L20.5542 12.687L18.4403 10.6926V9.59705H17.6215V13.0726L18.1678 13.0728L20.385 15.2137L20.1833 18.0615V18.6608C20.1833 18.8764 20.1502 18.8764 20.0963 18.8764C20.0497 18.8764 19.9845 18.8655 19.9002 18.8459C19.666 18.7793 19.5527 18.7548 19.2994 18.7548C18.2104 18.7548 17.4501 19.6426 17.4501 20.9146C17.4501 22.2415 18.5121 23.4502 19.6795 23.4502C20.7338 23.4502 21.47 22.571 21.47 21.3102C21.47 20.8802 21.3712 20.4475 21.2756 20.0275C21.185 19.6328 21.092 19.2246 21.092 18.8462C21.092 17.9842 21.5988 17.0328 22.0889 16.4822C22.3864 16.6555 22.68 16.9222 22.9835 17.2942C23.687 18.1666 23.9072 18.7762 24.1363 19.8146C24.1645 19.929 24.1913 20.0464 24.2217 20.1848C24.2999 20.5368 24.3808 20.9004 24.5281 21.2375C24.9504 22.2097 25.6723 22.7675 26.5101 22.7675C27.5085 22.7675 28.2626 21.9097 28.2626 20.7706C28.2635 19.4473 27.171 18.1948 26.0162 18.1948ZM19.6605 22.4188C18.9269 22.4188 18.3783 21.6242 18.3783 20.9148C18.3783 20.3704 18.7374 19.8068 19.3382 19.8068C20.1297 19.8068 20.5434 20.5735 20.5434 21.3297C20.5434 21.8646 20.2129 22.4188 19.6605 22.4188ZM26.3959 21.7559C25.7631 21.7559 25.2285 20.7188 25.2285 20.0675C25.2285 19.5455 25.682 19.2713 26.1297 19.2713C26.7491 19.2713 27.355 20.1302 27.355 20.7704C27.3548 21.397 27.006 21.7559 26.3959 21.7559ZM17.6231 0.338379H18.4425V3.81349H17.6231V0.338379Z" fill="#001E0A"/>
<path d="M17.6232 14.227H18.4427V17.7017H17.6232V14.227ZM17.6232 4.96924H18.4427V8.4439H17.6232V4.96924ZM27.3457 14.887H24.0523V13.8766H26.344V6.61213L24.0523 6.61479V5.60435L27.3457 5.59879V14.887ZM9.63676 12.9726C10.1139 12.4339 10.4998 11.8299 10.7745 11.3359C10.9723 11.3465 11.1693 11.3041 11.3455 11.2132C11.5217 11.1222 11.6707 10.9858 11.7774 10.818C11.8842 10.6501 11.9447 10.4568 11.953 10.2578C11.9612 10.0587 11.9169 9.86098 11.8244 9.68479C11.6808 9.4293 11.4439 9.24014 11.164 9.15748C10.8841 9.07482 10.5832 9.10515 10.3251 9.24204C10.0671 9.37894 9.87218 9.61162 9.78185 9.89069C9.69152 10.1698 9.71285 10.4733 9.8413 10.7368C9.87377 10.7983 9.91132 10.855 9.95263 10.9079C9.7207 11.3223 9.42648 11.7795 9.08853 12.1895L7.74975 10.2788L10.1673 6.62235L16.4758 6.61346L16.4744 5.60435L9.62969 5.6139L6.53401 10.2952L8.3669 12.9121C7.97726 13.2206 7.55516 13.421 7.11803 13.421C6.03437 13.421 5.95066 12.9543 5.78345 12.0243C5.65202 11.2946 5.48879 10.3863 4.63397 9.78657C3.7955 9.19857 2.87795 9.22879 2.0503 9.87235L2.04941 9.87324C1.47556 10.3199 1.13429 10.9199 1.12016 10.9452C1.07999 11.0162 1.05906 11.0966 1.05947 11.1782C1.05987 11.2599 1.0816 11.34 1.12246 11.4106C1.16333 11.4812 1.2219 11.5397 1.29232 11.5803C1.36274 11.621 1.44253 11.6423 1.52371 11.6421C1.60591 11.6422 1.68665 11.6203 1.75768 11.5787C1.8287 11.5371 1.88746 11.4772 1.92793 11.4052C1.93058 11.4006 2.19652 10.9395 2.61797 10.6115C3.12578 10.2166 3.59737 10.1981 4.10275 10.5526C4.64391 10.9321 4.75369 11.5432 4.8701 12.1903C5.03443 13.1041 5.25929 14.3548 7.11803 14.3548C7.77737 14.3548 8.37552 14.0777 8.89945 13.6715L9.75052 14.8866H16.4753V13.8772H10.2707L9.63676 12.9726Z" fill="#001E0A"/>
</svg>
